<svg width="96" height="22" viewBox="0 0 96 22" fill="none" xmlns="http://www.w3.org/2000/svg">
<g clip-path="url(#clip0_405_648)">
<path d="M18.6353 0.491709C17.4809 0.482113 16.3421 0.766496 15.3201 1.31958C14.2981 1.87267 13.4246 2.67732 12.7773 3.66198C12.1302 2.67704 11.2568 1.87218 10.2348 1.31906C9.21269 0.765938 8.07373 0.481723 6.91924 0.491709C5.79319 0.491287 4.68407 0.774066 3.68822 1.31549C2.69236 1.85691 1.83988 2.6406 1.20484 3.59848C0.569802 4.55636 0.171403 5.65947 0.0442446 6.81199C-0.082914 7.9645 0.0650104 9.13156 0.47518 10.2118C1.55953 13.6024 5.7579 17.5085 9.09649 20.1897C10.1434 21.0313 11.4333 21.4884 12.7612 21.4884C14.0892 21.4884 15.3791 21.0313 16.426 20.1897C19.7774 17.5063 23.9929 13.6002 25.0794 10.2052C25.4882 9.1253 25.6351 7.95895 25.5073 6.80734C25.3795 5.65572 24.9809 4.55362 24.346 3.59662C23.7111 2.63962 22.8591 1.85663 21.864 1.31557C20.8689 0.774505 19.7606 0.491707 18.6353 0.491709ZM2.9048 9.35921C2.9048 9.33057 2.88556 9.30413 2.87487 9.27769C2.61131 8.5975 2.5136 7.86113 2.59032 7.13303C2.66704 6.40493 2.91583 5.70729 3.31493 5.10118C3.71402 4.49507 4.25125 3.99896 4.87959 3.65627C5.50794 3.31357 6.20826 3.13475 6.91924 3.13544C9.9413 3.13544 11.0363 5.72628 11.2246 6.24401C11.2405 6.28776 11.2591 6.33044 11.2802 6.3718C11.411 6.75982 11.4832 7.16627 11.494 7.57689C11.494 7.64739 11.494 7.71569 11.494 7.78619C11.4814 8.36536 11.3662 8.93729 11.154 9.47377C9.75309 12.0668 7.19728 13.327 5.94397 13.8117C4.32707 12.1021 3.28336 10.5841 2.9048 9.36802V9.35921ZM14.8497 18.1166C14.2535 18.5961 13.5188 18.8565 12.7623 18.8565C12.0059 18.8565 11.2711 18.5961 10.6749 18.1166C9.68679 17.3234 8.78281 16.5523 7.96295 15.8033C9.41517 15.0851 11.3529 13.8205 12.7773 11.776C14.191 13.8227 16.0988 15.0807 17.5766 15.8011C16.7539 16.5487 15.845 17.3205 14.8497 18.1166ZM22.6797 9.2843C22.6797 9.31073 22.6583 9.33718 22.6498 9.36582C22.2712 10.5797 21.2254 12.0977 19.6042 13.8139C18.3894 13.3424 15.7993 12.0756 14.4006 9.47817C14.1953 8.97411 14.0801 8.436 14.0605 7.88974C14.0605 7.77959 14.0605 7.66722 14.0605 7.55266C14.0725 7.15221 14.1447 6.7561 14.2744 6.3784C14.2937 6.33654 14.3108 6.29469 14.3279 6.25283C14.5161 5.7329 15.6111 3.14204 18.6332 3.14204C19.3442 3.14136 20.0445 3.32018 20.6728 3.66288C21.3012 4.00557 21.8384 4.50167 22.2375 5.10778C22.6366 5.71389 22.8854 6.41153 22.9621 7.13963C23.0388 7.86773 22.9411 8.6041 22.6776 9.2843H22.6797Z" fill="white"/>
<path d="M42.89 6.01874C42.0067 5.30052 41.0272 4.93921 39.483 4.93921H35.3851C34.9603 4.93921 34.5528 5.11306 34.2524 5.42252C33.952 5.73198 33.7832 6.15169 33.7832 6.58933V17.107C33.7832 17.4844 33.9288 17.8464 34.1879 18.1133C34.447 18.3802 34.7984 18.5302 35.1648 18.5302C35.3746 18.5302 35.5823 18.4874 35.7759 18.4043C35.9696 18.3212 36.1453 18.1995 36.2931 18.0461C36.4408 17.8927 36.5576 17.7106 36.6367 17.5105C36.7158 17.3104 36.7556 17.0961 36.7539 16.88V15.719C36.7539 15.2814 36.9227 14.8617 37.2231 14.5522C37.5235 14.2427 37.931 14.0689 38.3559 14.0689H39.483C41.0272 14.0689 42.0067 13.6613 42.89 12.8462C43.7733 12.031 44.216 10.8634 44.216 9.36084C44.216 7.85833 43.7733 6.73915 42.89 6.01874ZM40.8775 10.35C40.81 10.5772 40.6995 10.7884 40.5524 10.9713C40.3949 11.1565 40.1938 11.2968 39.9685 11.3789C39.6855 11.4807 39.387 11.5292 39.0873 11.5221H38.3559C37.931 11.5221 37.5235 11.3482 37.2231 11.0388C36.9227 10.7293 36.7539 10.3096 36.7539 9.87197V9.15816C36.7539 8.72052 36.9227 8.3008 37.2231 7.99134C37.5235 7.68188 37.931 7.50802 38.3559 7.50802H39.0873C39.3869 7.50025 39.6853 7.54801 39.9685 7.64903C40.1991 7.73718 40.4012 7.88976 40.5524 8.08965C40.6995 8.28732 40.8098 8.51143 40.8775 8.75058C40.9546 9.02839 40.9914 9.31646 40.9865 9.60538C40.9864 9.85781 40.9496 10.1088 40.8775 10.35Z" fill="white"/>
<path d="M51.0553 7.91559C50.4305 7.91588 49.8085 8.00106 49.2053 8.16894C48.649 8.31925 48.1037 8.50993 47.5735 8.73955C47.3489 8.84089 47.1457 8.93341 46.996 9.02374C46.8718 9.09491 46.7687 9.19958 46.6979 9.32649C46.6271 9.45341 46.5911 9.59779 46.5939 9.74416V17.0144C46.5936 17.2138 46.6315 17.4113 46.7055 17.5956C46.7795 17.7799 46.888 17.9474 47.0249 18.0884C47.1618 18.2294 47.3243 18.3412 47.5032 18.4174C47.6822 18.4936 47.8739 18.5326 48.0675 18.5324C48.4583 18.5324 48.8331 18.3724 49.1095 18.0877C49.3858 17.8031 49.5411 17.417 49.5411 17.0144V11.3745C49.541 11.1453 49.6276 10.925 49.7825 10.7605C49.9375 10.596 50.1485 10.5001 50.3709 10.4932C50.7003 10.48 51.0511 10.4756 51.4189 10.4822C51.7868 10.4888 52.144 10.5064 52.4883 10.5329C52.5971 10.5427 52.7066 10.529 52.81 10.4928C52.9134 10.4566 53.0084 10.3986 53.0888 10.3226C53.1693 10.2466 53.2335 10.1541 53.2774 10.0511C53.3213 9.9481 53.3439 9.83681 53.3438 9.72433V9.1273C53.3439 8.88342 53.2654 8.64643 53.1206 8.45345C52.9758 8.26048 52.773 8.12244 52.5439 8.06099C52.0554 7.94988 51.5554 7.90106 51.0553 7.91559Z" fill="white"/>
<path d="M90.8771 7.98169C89.8615 7.98169 88.8686 8.29207 88.0243 8.87355C87.1799 9.45504 86.522 10.2815 86.1338 11.2483C85.7457 12.2151 85.6446 13.2788 85.8436 14.3047C86.0425 15.3307 86.5324 16.2728 87.2513 17.0118C87.9703 17.7508 88.8859 18.2536 89.8823 18.4563C90.8787 18.6591 91.9111 18.5528 92.8489 18.1509C93.7866 17.7491 94.5875 17.0696 95.1503 16.1987C95.713 15.3277 96.0123 14.3044 96.0102 13.2581C96.0073 11.8577 95.4653 10.5157 94.5029 9.52646C93.5406 8.53725 92.2367 7.98169 90.8771 7.98169ZM90.8771 15.6595C90.4161 15.6595 89.9653 15.5187 89.582 15.2548C89.1986 14.9909 88.8998 14.6159 88.7234 14.1771C88.5469 13.7383 88.5007 13.2555 88.5907 12.7896C88.6807 12.3238 88.9027 11.8959 89.2287 11.5601C89.5547 11.2243 89.9701 10.9955 90.4223 10.9029C90.8745 10.8102 91.3433 10.8578 91.7692 11.0395C92.1952 11.2213 92.5593 11.5291 92.8155 11.924C93.0717 12.3189 93.2084 12.7832 93.2084 13.2581C93.2072 13.8943 92.9611 14.5039 92.5241 14.9533C92.087 15.4027 91.4947 15.6551 90.8771 15.6551V15.6595Z" fill="white"/>
<path d="M81.8583 11.2709H79.2383C79.1769 11.271 79.1166 11.2536 79.0642 11.2207C79.0117 11.1878 78.9691 11.1406 78.941 11.0843C78.9129 11.0281 78.9004 10.9649 78.905 10.9018C78.9095 10.8387 78.9309 10.7781 78.9667 10.7267L80.2286 8.91794C80.3305 8.77201 80.4034 8.60683 80.4433 8.43183C80.4832 8.25684 80.4892 8.07545 80.461 7.89807C80.4328 7.72068 80.3709 7.55076 80.2789 7.39801C80.1869 7.24526 80.0666 7.11269 79.9249 7.00786C79.7832 6.90291 79.6229 6.82776 79.453 6.78668C79.2831 6.74561 79.107 6.73942 78.9348 6.76848C78.7626 6.79753 78.5976 6.86125 78.4493 6.95601C78.301 7.05076 78.1724 7.17468 78.0706 7.32069L75.6816 10.7553C75.375 11.1942 75.25 11.7406 75.3343 12.2743C75.4185 12.808 75.7049 13.2855 76.1307 13.6017C76.4894 13.8663 76.9194 14.0087 77.3605 14.0093H79.9826C80.0441 14.0097 80.1043 14.0275 80.1566 14.0606C80.209 14.0938 80.2515 14.1412 80.2795 14.1975C80.3075 14.2539 80.32 14.3171 80.3155 14.3803C80.3111 14.4434 80.2899 14.5041 80.2542 14.5557L78.9924 16.3622C78.8904 16.508 78.8173 16.6731 78.7772 16.848C78.7372 17.0229 78.731 17.2043 78.759 17.3816C78.787 17.559 78.8487 17.729 78.9405 17.8818C79.0323 18.0346 79.1524 18.1673 79.2939 18.2723C79.5802 18.4846 79.9365 18.5711 80.2846 18.5129C80.6327 18.4546 80.9441 18.2564 81.1504 17.9617L83.5479 14.5248C83.8542 14.086 83.9787 13.5399 83.8941 13.0065C83.8095 12.4731 83.5226 11.9962 83.0967 11.6806C82.7366 11.4121 82.3028 11.2686 81.8583 11.2709Z" fill="white"/>
<path d="M58.7217 14.0938H62.9137C63.1064 14.0985 63.2978 14.0598 63.4745 13.9803C63.6512 13.9009 63.8089 13.7826 63.9366 13.6339C64.0643 13.4851 64.159 13.3094 64.2139 13.1191C64.2688 12.9287 64.2827 12.7283 64.2547 12.5318C64.1954 11.9357 64.072 11.3483 63.8868 10.7803C63.6324 9.94846 63.1256 9.22259 62.441 8.70941C61.7823 8.23501 60.9175 7.99854 59.8467 8.00001C58.2897 8.00001 57.0927 8.47662 56.2557 9.42983C55.4188 10.383 55.001 11.7277 55.0024 13.4637C54.9748 14.419 55.1854 15.3656 55.6141 16.2132C56.0159 16.9624 56.6209 17.5748 57.355 17.9757C58.1468 18.4002 59.0291 18.6138 59.9215 18.597C60.5862 18.6059 61.25 18.5431 61.902 18.4097C62.2958 18.3253 62.6838 18.2142 63.0634 18.077C63.1105 18.0598 63.1551 18.0361 63.196 18.0065C63.3634 17.907 63.5023 17.7637 63.5988 17.5912C63.6953 17.4187 63.746 17.223 63.7456 17.0239V16.4776C63.746 16.3649 63.7237 16.2534 63.6799 16.1501C63.6361 16.0469 63.572 15.9541 63.4915 15.8778C63.411 15.8016 63.3159 15.7434 63.2124 15.7071C63.1088 15.6707 62.9991 15.657 62.8901 15.6668C62.8091 15.6796 62.7295 15.701 62.6527 15.7307C62.3306 15.8539 62.0013 15.9562 61.6668 16.0369C61.3164 16.1225 60.9575 16.1654 60.5974 16.1647C59.6264 16.1647 58.9213 15.9084 58.4822 15.3958C58.3674 15.2614 58.2683 15.1135 58.187 14.9552C58.1393 14.8634 58.1163 14.7601 58.1202 14.6561C58.1241 14.552 58.1549 14.4509 58.2094 14.3632C58.2638 14.2754 58.34 14.2042 58.4301 14.1569C58.5201 14.1095 58.6208 14.0878 58.7217 14.0938ZM58.0801 11.4501C58.1994 11.0735 58.4363 10.7482 58.7538 10.5248C59.0436 10.3388 59.3791 10.2425 59.7205 10.2472C60.3578 10.2472 60.8177 10.4675 61.1 10.9081C61.2078 11.084 61.2893 11.2756 61.3417 11.4765C61.3669 11.5638 61.3721 11.656 61.3568 11.7457C61.3414 11.8354 61.3059 11.9202 61.2532 11.9934C61.2005 12.0665 61.1319 12.126 61.053 12.167C60.974 12.2081 60.8869 12.2297 60.7984 12.23H58.6041C58.5132 12.2309 58.4235 12.2089 58.3429 12.1659C58.2622 12.1228 58.193 12.0601 58.1413 11.9832C58.0896 11.9062 58.057 11.8174 58.0463 11.7245C58.0356 11.6315 58.0472 11.5373 58.0801 11.4501Z" fill="white"/>
<path d="M72.506 15.8315C72.4262 15.8434 72.3479 15.8648 72.2729 15.8954L72.2194 15.913C72.0181 15.9869 71.8064 16.0263 71.5928 16.0298C71.4647 16.043 71.3353 16.028 71.2133 15.9858C71.0912 15.9437 70.9793 15.8753 70.8848 15.7852C70.7266 15.5669 70.6506 15.2968 70.6709 15.0251V10.8062C70.6709 10.6893 70.716 10.5772 70.7962 10.4946C70.8765 10.412 70.9853 10.3656 71.0987 10.3656H72.1681C72.4756 10.3521 72.7661 10.2169 72.9791 9.98801C73.1921 9.75914 73.311 9.45436 73.311 9.13733C73.311 8.8203 73.1921 8.51552 72.9791 8.28666C72.7661 8.05779 72.4756 7.92252 72.1681 7.9091H71.0987C70.9853 7.9091 70.8765 7.86268 70.7962 7.78005C70.716 7.69742 70.6709 7.58534 70.6709 7.46848V6.68417C70.6393 6.29909 70.4684 5.94029 70.1921 5.6788C69.9159 5.41732 69.5544 5.27222 69.1792 5.27222C68.804 5.27222 68.4425 5.41732 68.1662 5.6788C67.89 5.94029 67.7191 6.29909 67.6874 6.68417V7.46848C67.6874 7.58534 67.6423 7.69742 67.5621 7.78005C67.4819 7.86268 67.3731 7.9091 67.2597 7.9091H66.2459C66.0851 7.90208 65.9245 7.92865 65.7739 7.98721C65.6233 8.04577 65.4858 8.13512 65.3696 8.24987C65.2533 8.36461 65.1609 8.50238 65.0977 8.65489C65.0345 8.80741 65.002 8.97151 65.002 9.13733C65.002 9.30315 65.0345 9.46726 65.0977 9.61977C65.1609 9.77229 65.2533 9.91007 65.3696 10.0248C65.4858 10.1396 65.6233 10.2289 65.7739 10.2875C65.9245 10.346 66.0851 10.3726 66.2459 10.3656H67.2597C67.3731 10.3656 67.4819 10.412 67.5621 10.4946C67.6423 10.5772 67.6874 10.6893 67.6874 10.8062V15.3997C67.6874 16.3984 67.9619 17.1695 68.5108 17.7129C69.0598 18.2564 69.8946 18.5288 71.0153 18.5303C71.3196 18.5295 71.6231 18.5 71.9221 18.4421C72.0672 18.4136 72.2101 18.3746 72.3499 18.3254C72.4568 18.2923 72.5638 18.2571 72.6686 18.2174C72.7151 18.2006 72.7591 18.1769 72.799 18.1469C72.964 18.0491 73.1011 17.9081 73.1965 17.7384C73.2918 17.5686 73.3421 17.3759 73.3423 17.1798V16.6246C73.3417 16.5147 73.3192 16.4062 73.2761 16.3057C73.233 16.2052 73.1702 16.1149 73.0918 16.0405C73.0133 15.9661 72.9208 15.9091 72.82 15.8731C72.7192 15.8372 72.6123 15.823 72.506 15.8315Z" fill="white"/>
</g>
<defs>
<clipPath id="clip0_405_648">
<rect width="96" height="21" fill="white" transform="translate(0 0.5)"/>
</clipPath>
</defs>
</svg>
