<svg width="45" height="53" viewBox="0 0 45 53" fill="none" xmlns="http://www.w3.org/2000/svg">
<path d="M19.5417 52.4853C13.9118 51.7873 9.24786 49.3325 5.54983 45.1208C1.84994 40.911 0 35.9679 0 30.2915C0 27.2207 0.604861 24.2773 1.81458 21.4615C3.02431 18.6475 4.74583 16.1936 6.97917 14.0998L10.9573 18.078C9.18924 19.6599 7.85203 21.4978 6.94567 23.5915C6.03745 25.6853 5.58333 27.9186 5.58333 30.2915C5.58333 34.3859 6.88611 38.003 9.49167 41.1427C12.0972 44.2843 15.4472 46.204 19.5417 46.9019V52.4853ZM25.125 52.4853V46.9019C29.1729 46.1575 32.5108 44.2266 35.1387 41.1092C37.7685 37.9918 39.0833 34.3859 39.0833 30.2915C39.0833 25.6387 37.4549 21.6839 34.1979 18.4269C30.941 15.17 26.9861 13.5415 22.3333 13.5415H22.124L25.1948 16.6123L21.2865 20.5207L11.5156 10.7498L21.2865 0.979004L25.1948 4.88734L22.124 7.95817H22.3333C28.5681 7.95817 33.849 10.1217 38.176 14.4488C42.5031 18.7759 44.6667 24.0568 44.6667 30.2915C44.6667 35.9214 42.8177 40.8421 39.1196 45.0538C35.4197 49.2637 30.7549 51.7408 25.125 52.4853Z" fill="#14CBF3"/>
<path d="M18.4 27.3234C17.5 25.5589 13.9 25.5589 13 27.3234M31 27.3234C30.1 25.5589 26.5 25.5589 25.6 27.3234M26.5 36.1463C25.9134 36.7332 25.2133 37.1994 24.4406 37.5177C23.6679 37.836 22.8381 38 22 38C21.1619 38 20.3321 37.836 19.5594 37.5177C18.7867 37.1994 18.0866 36.7332 17.5 36.1463" stroke="#14CBF3" stroke-width="3" stroke-linecap="round" stroke-linejoin="round"/>
</svg>
