<svg width="21" height="19" viewBox="0 0 21 19" fill="none" xmlns="http://www.w3.org/2000/svg">
<path fill-rule="evenodd" clip-rule="evenodd" d="M10.0684 19C15.629 19 20.1368 14.7467 20.1368 9.5C20.1368 4.25329 15.629 0 10.0684 0C4.50777 0 0 4.25329 0 9.5C0 14.7467 4.50777 19 10.0684 19ZM10.0683 1.0411C10.0683 1.0411 10.0684 1.0411 10.0683 1.0411V1.0411Z" fill="#14D1F2"/>
<path fill-rule="evenodd" clip-rule="evenodd" d="M3.10156 14.8249C4.35898 12.4482 6.96157 10.8159 9.96821 10.8159C13.0348 10.8159 15.681 12.5139 16.9084 14.9678C15.2639 16.7976 12.8096 17.959 10.0678 17.959C7.25526 17.959 4.74522 16.737 3.10156 14.8249Z" fill="white"/>
<ellipse cx="9.9688" cy="7.1502" rx="3.08794" ry="2.91362" fill="white"/>
</svg>
