<svg width="18" height="19" viewBox="0 0 18 19" fill="none" xmlns="http://www.w3.org/2000/svg">
<path d="M17.2036 4.465L17.2145 4.45444L13.1564 0.527778L12 1.64667L14.3018 3.87389C13.2764 4.25389 12.5455 5.20389 12.5455 6.33333C12.5455 6.67988 12.616 7.02303 12.7531 7.34319C12.8901 7.66336 13.091 7.95427 13.3443 8.19931C13.8557 8.6942 14.5494 8.97222 15.2727 8.97222C15.6655 8.97222 16.0255 8.88778 16.3636 8.75056V16.3611C16.3636 16.6411 16.2487 16.9095 16.0441 17.1075C15.8395 17.3055 15.5621 17.4167 15.2727 17.4167C14.9834 17.4167 14.7059 17.3055 14.5013 17.1075C14.2968 16.9095 14.1818 16.6411 14.1818 16.3611V11.6111C14.1818 11.0512 13.9519 10.5142 13.5428 10.1183C13.1336 9.72242 12.5787 9.5 12 9.5H10.9091V2.11111C10.9091 1.55121 10.6792 1.01424 10.2701 0.61833C9.86088 0.22242 9.30593 0 8.72727 0H2.18182C1.60316 0 1.04821 0.22242 0.63904 0.61833C0.229869 1.01424 0 1.55121 0 2.11111V19H10.9091V11.0833H12.5455V16.3611C12.5455 17.061 12.8328 17.7322 13.3443 18.2271C13.8557 18.722 14.5494 19 15.2727 19C15.6309 19 15.9855 18.9317 16.3164 18.7991C16.6473 18.6665 16.948 18.4721 17.2012 18.2271C17.4545 17.982 17.6553 17.6911 17.7924 17.371C17.9295 17.0508 18 16.7077 18 16.3611V6.33333C18 5.605 17.6945 4.94 17.2036 4.465ZM15.2727 7.38889C14.9834 7.38889 14.7059 7.27768 14.5013 7.07972C14.2968 6.88177 14.1818 6.61328 14.1818 6.33333C14.1818 6.05338 14.2968 5.7849 14.5013 5.58694C14.7059 5.38899 14.9834 5.27778 15.2727 5.27778C15.5621 5.27778 15.8395 5.38899 16.0441 5.58694C16.2487 5.7849 16.3636 6.05338 16.3636 6.33333C16.3636 6.61328 16.2487 6.88177 16.0441 7.07972C15.8395 7.27768 15.5621 7.38889 15.2727 7.38889ZM4.36364 15.8333V11.0833H2.18182L6.54545 3.16667V8.44444H8.72727L4.36364 15.8333Z" fill="#14CBF3"/>
</svg>
